<svg width="206" height="35" viewBox="0 0 206 35" fill="none" xmlns="http://www.w3.org/2000/svg">
<g id="Group">
<g id="Vector">
<path d="M204.976 23.9087C204.976 24.7982 204.334 25.4405 203.463 25.4405C202.596 25.4405 201.951 24.7982 201.951 23.9087C201.951 23.0209 202.596 22.3769 203.465 22.3769C204.335 22.3769 204.976 23.0209 204.976 23.9087ZM205.242 23.9087C205.242 23.6751 205.196 23.4437 205.107 23.2278C205.018 23.012 204.887 22.8158 204.722 22.6505C204.557 22.4852 204.361 22.3541 204.145 22.2646C203.929 22.1751 203.698 22.129 203.464 22.1288C203.23 22.1287 202.999 22.1746 202.783 22.2639C202.567 22.3532 202.371 22.4842 202.206 22.6493C202.041 22.8144 201.909 23.0104 201.82 23.2262C201.73 23.442 201.684 23.6733 201.684 23.9069C201.684 24.3788 201.871 24.8313 202.205 25.1651C202.538 25.4989 202.991 25.6866 203.462 25.6868C203.934 25.687 204.387 25.4998 204.721 25.1664C205.054 24.8329 205.242 24.3805 205.242 23.9087Z" fill="#0E0D0F"/>
<path d="M203.792 23.4944C203.792 23.7555 203.575 23.7851 203.364 23.7851H203.178V23.202H203.453C203.702 23.202 203.792 23.3221 203.792 23.4944ZM204.234 24.8173L203.804 24.2133C203.747 24.121 203.674 24.0387 203.59 23.9696C203.9 23.9296 204.078 23.7607 204.078 23.4944C204.078 23.2211 203.886 22.9722 203.515 22.9722H202.913V24.8173H203.178V23.9922C203.322 23.9922 203.378 24.0375 203.467 24.1715L203.912 24.8156H204.234V24.8173Z" fill="#0E0D0F"/>
<path d="M53.0387 10.0165L49.6688 17.8844H56.4383L53.0387 10.0165ZM63.347 25.6913H59.6968L57.702 20.9462H48.4033L46.3806 25.6913H42.8418L51.4947 5.88759H54.6941L63.347 25.6913ZM95.2282 25.6919H91.7433V9.23029H85.5064V6.02741H101.743L100.405 9.23029H95.2282V25.6919ZM161.379 9.22988H150.848V14.2309H157.593V17.3241H150.848V22.5496H161.385V25.6915H147.37V6.02706H161.379V9.22988ZM186.071 25.6922H182.776V6.02768H186.071V25.6922Z" fill="#0E0D0F"/>
<path d="M172.06 8.86571C170.051 8.86571 168.343 9.47321 168.335 10.8066C168.324 12.368 169.304 12.9093 173.003 14.1121C177.09 15.4559 179.261 16.8224 179.238 20.1471C179.217 23.8948 176.321 26.0306 172.091 26.0306C169.097 26.0306 166.413 25.061 164.366 23.2611L165.64 20.1767C167.497 21.7328 169.748 22.8364 172.18 22.8469C174.309 22.8573 175.823 21.8199 175.823 20.2881C175.823 19.0052 175.081 18.1522 171.494 17.0156C167.379 15.6666 164.893 14.2601 164.914 10.9093C164.938 7.57586 168.065 5.68026 171.995 5.69941C175.929 5.71682 178.142 7.15636 178.477 7.35132L177.242 10.1538C176.441 9.72213 174.679 8.86571 172.06 8.86571ZM190.318 15.5464L199.12 6.02666H194.903L186.07 15.5482L195.776 25.6964H200.052L190.318 15.5482V15.5464ZM112.394 22.8573C108.53 22.8573 105.71 19.7258 105.71 15.8615C105.71 11.9972 108.53 8.86397 112.394 8.86397C116.259 8.86397 119.082 11.9972 119.082 15.8615C119.082 19.7258 116.259 22.8591 112.394 22.8591V22.8573ZM112.394 5.68896C111.059 5.68919 109.736 5.9525 108.502 6.46384C107.268 6.97518 106.147 7.72455 105.203 8.66915C103.296 10.5769 102.225 13.164 102.225 15.8615C102.226 18.559 103.298 21.1458 105.205 23.0528C107.113 24.9599 109.7 26.031 112.398 26.0306C115.095 26.0301 117.682 24.9581 119.589 23.0504C121.496 21.1427 122.567 18.5555 122.567 15.858C122.566 13.1606 121.494 10.5738 119.587 8.66669C117.679 6.75962 115.092 5.6885 112.394 5.68896ZM133.665 22.5457L129.693 22.5492V9.23299H133.679C137.544 9.23299 140.351 11.9711 140.351 15.8337C140.351 19.698 137.526 22.5457 133.665 22.5457ZM133.665 6.0284H126.205V25.6929H133.665C139.279 25.6929 143.831 21.4491 143.831 15.8337C143.831 10.2165 139.279 6.0284 133.665 6.0284ZM81.7078 16.979C81.7078 22.8416 78.2682 26.0027 73.2794 26.0027C68.2923 26.0027 64.8546 22.8416 64.8546 16.979V6.03014H68.3359V17.3933C68.3359 20.8329 70.355 22.8521 73.2794 22.8521C76.2072 22.8521 78.2265 20.8329 78.2265 17.3933V6.0284H81.7078V16.979Z" fill="#0E0D0F"/>
</g>
<g id="Group_2">
<path id="Vector_2" d="M7.22846 34.4335C6.25998 34.4335 5.75682 34.0681 5.27368 33.2197L0.86084 25.0395C0.556845 24.4532 0.551941 24.2579 0.551941 23.8357L7.48716 24.1414L9.07454 25.7286H22.9857L11.4351 32.8839C10.8722 33.2169 8.73083 34.4335 7.22846 34.4335Z" fill="url(#paint0_linear_1574_395)"/>
<path id="Vector_3" d="M9.08082 25.7285H3.08193C1.27005 25.7285 0.55188 24.7809 0.55188 23.8356C0.55188 23.2373 0.744317 22.9112 1.01055 22.2465L9.75284 1.37636L9.84678 1.19315L9.96775 1.00526L10.2193 0.760078L10.5888 0.562647L11.1239 0.444803L12.0443 0.468613L18.1193 2.72668L16.0651 9.20457L9.08082 25.7285Z" fill="url(#paint1_linear_1574_395)"/>
<path id="Vector_4" d="M26.6953 34.4323L12.8962 1.76495C12.6585 1.20877 12.2774 0.491146 11.2911 0.491146C10.4097 0.491146 9.98983 0.917755 9.75281 1.37646C9.87533 1.04567 10.2463 0.403084 11.3217 0.403084H20.8455C21.7231 0.403084 22.1442 0.919941 22.336 1.39314L36.2905 34.4323H26.6953Z" fill="url(#paint2_linear_1574_395)"/>
</g>
</g>
<defs>
<linearGradient id="paint0_linear_1574_395" x1="3.32552" y1="29.2769" x2="7.5616" y2="28.4328" gradientUnits="userSpaceOnUse">
<stop stop-color="#2B7A77"/>
<stop offset="0.51" stop-color="#4EBAA9"/>
<stop offset="1" stop-color="#5CC2B1"/>
</linearGradient>
<linearGradient id="paint1_linear_1574_395" x1="13.8091" y1="3.21243" x2="11.7069" y2="8.14919" gradientUnits="userSpaceOnUse">
<stop stop-color="#236736"/>
<stop offset="0.493" stop-color="#6BA443"/>
<stop offset="1" stop-color="#86C146"/>
</linearGradient>
<linearGradient id="paint2_linear_1574_395" x1="15.9313" y1="1.03681" x2="19.0208" y2="8.39426" gradientUnits="userSpaceOnUse">
<stop stop-color="#29A5E3"/>
<stop offset="0.515" stop-color="#356EB9"/>
<stop offset="1" stop-color="#394DA5"/>
</linearGradient>
</defs>
</svg>
