<svg width="151" height="60" viewBox="0 0 151 60" fill="none" xmlns="http://www.w3.org/2000/svg">
<g id="Giropay" style="mix-blend-mode:luminosity">
<path id="Subtract" fill-rule="evenodd" clip-rule="evenodd" d="M12.0002 4.36546C8.45745 4.37126 5.5911 6.98371 5.58421 10.2122V49.0289C5.58507 49.4324 5.63061 49.8262 5.71657 50.2065C6.31826 52.8689 8.9003 54.8701 12.0002 54.8756H78.7559V4.36546H12.0002ZM12.0001 0H139.761C145.95 0.000967035 150.964 4.56972 150.966 10.2119V49.0287C150.964 54.6689 145.95 59.2381 139.761 59.2401H12.0001C5.81041 59.2381 0.796554 54.6689 0.794434 49.0287V10.2119C0.796554 4.56972 5.81041 0.000967035 12.0001 0Z" fill="#0F3365"/>
<path id="Union" fill-rule="evenodd" clip-rule="evenodd" d="M89.6816 42.6786H84.0772V21.9323H89.2464V24.6004H89.3089C90.4296 22.5285 92.7971 21.5919 95.3507 21.5919C99.8355 21.5919 102.294 25.4804 102.294 29.0555C102.294 33.4265 99.7093 37.0592 94.8826 37.0592C92.9211 37.0592 90.8033 36.4074 89.7441 34.6479H89.6816V42.6786ZM93.1091 33.1423C95.2254 33.1423 96.5024 31.5254 96.5024 29.1692C96.5024 27.21 95.2879 25.508 93.1091 25.508C91.0528 25.508 89.6814 27.1544 89.6814 29.3674C89.6814 31.5254 91.2399 33.1423 93.1091 33.1423ZM123.77 42.6783C124.923 42.9061 126.074 43.0197 127.258 43.0197C132.106 43.0197 133.461 39.8111 134.931 36.3287C135.019 36.1194 135.108 35.909 135.198 35.6983L141.147 21.932H135.542L132.209 31.5811H132.147L128.659 21.932H122.62L129.187 37.0589C128.785 38.3644 127.726 39.1027 126.357 39.1027C125.577 39.1027 124.891 39.0191 124.145 38.7899L123.77 42.6783ZM121.681 37.1992C121.433 36.0358 121.369 34.873 121.369 33.7086V28.2028C121.369 23.6902 117.789 22.0733 113.647 22.0733C111.248 22.0733 109.162 22.3842 107.169 23.1235L107.262 26.5855C108.82 25.7915 110.626 25.4787 112.431 25.4787C114.456 25.4787 116.107 26.0178 116.138 28.0336C115.422 27.919 114.426 27.8329 113.523 27.8329C110.533 27.8329 105.146 28.374 105.146 32.8862C105.146 36.0943 108.011 37.5415 111.218 37.5415C113.523 37.5415 115.08 36.7171 116.356 34.873H116.417C116.417 35.3229 116.45 35.7733 116.483 36.2288C116.506 36.5491 116.53 36.872 116.542 37.1992H121.681ZM110.377 32.5179C110.377 31.0988 111.871 30.5596 113.771 30.5596C114.367 30.5596 114.946 30.588 115.488 30.6145C115.712 30.6254 115.929 30.6361 116.138 30.6442C116.138 32.3748 114.8 34.1367 112.68 34.1367C111.373 34.1367 110.377 33.5381 110.377 32.5179Z" fill="#FFFFFE"/>
<path id="Union_2" fill-rule="evenodd" clip-rule="evenodd" d="M35.3634 36.7174H40.9683V21.9319H35.3634V36.7174ZM35.3633 19.5196H40.9683V15.7733H35.3633V19.5196ZM75.6613 29.3403C75.6613 34.2219 71.5815 37.0592 66.2268 37.0592C60.871 37.0592 56.7912 34.2219 56.7912 29.3403C56.7912 24.4293 60.871 21.592 66.2268 21.592C71.5815 21.592 75.6613 24.4293 75.6613 29.3403ZM62.5831 29.3404C62.5831 31.5259 63.6418 33.4831 66.2266 33.4831C68.8109 33.4831 69.8701 31.5259 69.8701 29.3404C69.8701 27.1263 68.8109 25.1681 66.2266 25.1681C63.6418 25.1681 62.5831 27.1263 62.5831 29.3404ZM54.6766 21.5921C55.3297 21.5921 56.0146 21.6772 56.5755 21.7608L56.2945 26.0182C55.6727 25.8485 55.0493 25.8485 54.3962 25.8485C51.7806 25.8485 50.3164 27.58 50.3164 30.4757V36.718H44.7115V21.9325H49.8186V24.6561H49.8801C50.846 22.784 52.2476 21.5921 54.6766 21.5921ZM26.4188 21.9325H31.4958V34.9884C31.4958 41.0609 28.2573 43.0201 21.7177 43.0201C19.0401 43.0201 16.829 42.5081 15.5207 42.084L15.8016 38.0534C17.5139 38.8198 18.9463 39.2734 21.282 39.2734C24.521 39.2734 26.264 37.8832 26.264 34.9884V34.1921H26.201C24.8629 35.9255 22.9948 36.718 20.7529 36.718C16.2994 36.718 13.528 33.6554 13.528 29.2829C13.528 24.8834 15.8016 21.5921 20.8457 21.5921C23.2429 21.5921 25.1741 22.784 26.3579 24.5996H26.4188V21.9325ZM22.4967 25.508C20.4102 25.508 19.3202 27.1825 19.3202 29.1968C19.3202 31.495 20.8152 32.8019 22.4967 32.8019C24.4889 32.8019 26.0777 31.2696 26.0777 28.9981C26.0777 27.3512 25.0185 25.508 22.4967 25.508Z" fill="#D8232A"/>
</g>
</svg>
