<svg width="54" height="54" viewBox="0 0 54 54" fill="none" xmlns="http://www.w3.org/2000/svg">
<g clip-path="url(#clip0_772_97)">
<path d="M26.1543 16.7313H48.3318C49.0759 16.7316 49.8128 16.5826 50.5004 16.2927C51.188 16.0028 51.8128 15.5777 52.3392 15.0416C52.8655 14.5056 53.2831 13.8691 53.5681 13.1686C53.8531 12.468 53.9998 11.7171 54 10.9588V5.77105C53.9998 5.01275 53.8531 4.26192 53.5681 3.56145C53.2831 2.86098 52.8655 2.2246 52.3391 1.68867C51.8127 1.15275 51.1879 0.727767 50.5003 0.438018C49.8127 0.14827 49.0758 -0.000570252 48.3318 1.64181e-06H20.6199V24.3786L26.1543 16.7313ZM26.533 10.5495V6.18171H47.1785C47.4538 6.18248 47.7176 6.29438 47.9121 6.49291C48.1066 6.69145 48.2161 6.96044 48.2165 7.24102V9.49023C48.2161 9.77081 48.1066 10.0398 47.9121 10.2383C47.7176 10.4369 47.4538 10.5488 47.1785 10.5495H26.533Z" fill="#030C59"/>
<path d="M37.579 48.1332C37.5788 48.8916 37.7253 49.6426 38.0102 50.3432C38.2951 51.0439 38.7127 51.6804 39.2391 52.2164C39.7656 52.7524 40.3906 53.1774 41.0783 53.467C41.7661 53.7566 42.5031 53.9052 43.2472 53.9042H48.3317C49.0758 53.9048 49.8126 53.756 50.5002 53.4662C51.1878 53.1765 51.8126 52.7515 52.339 52.2156C52.8654 51.6796 53.283 51.0433 53.568 50.3428C53.853 49.6423 53.9998 48.8915 54 48.1332V19.8903H30.0797L37.5762 25.5308L37.579 48.1332ZM47.9288 25.9168V46.9578C47.9288 47.0968 47.9019 47.2345 47.8496 47.363C47.7974 47.4914 47.7208 47.6081 47.6243 47.7063C47.5277 47.8046 47.4131 47.8825 47.287 47.9355C47.1609 47.9886 47.0258 48.0158 46.8894 48.0157H44.6839C44.4086 48.0153 44.1446 47.9037 43.9498 47.7055C43.755 47.5072 43.6452 47.2384 43.6445 46.9578V25.9168H47.9288Z" fill="#030C59"/>
<path d="M33.3759 29.6243L27.8415 37.2688H5.66825C4.16556 37.2684 2.72425 37.8763 1.66128 38.9588C0.598323 40.0413 0.000755073 41.5098 0 43.0413L0 48.229C0.000373865 48.9872 0.147284 49.7379 0.432343 50.4383C0.717401 51.1387 1.13503 51.775 1.66137 52.3109C2.18772 52.8468 2.81248 53.2718 3.49998 53.5616C4.18748 53.8514 4.92426 54.0004 5.66825 54H33.3759V29.6243ZM6.813 47.8183C6.67688 47.8179 6.54217 47.7902 6.41655 47.7368C6.29094 47.6833 6.17688 47.6052 6.08089 47.5068C5.9849 47.4085 5.90886 47.2918 5.85712 47.1635C5.80537 47.0352 5.77893 46.8977 5.77931 46.759V44.5098C5.77893 44.371 5.80537 44.2336 5.85712 44.1053C5.90886 43.977 5.9849 43.8603 6.08089 43.7619C6.17688 43.6636 6.29094 43.5854 6.41655 43.532C6.54217 43.4785 6.67688 43.4508 6.813 43.4505H27.4585V47.8183H6.813Z" fill="#030C59"/>
<path d="M16.4224 5.86681C16.422 5.10857 16.2751 4.35782 15.9901 3.65744C15.705 2.95706 15.2874 2.32075 14.761 1.78486C14.2347 1.24897 13.6099 0.823986 12.9224 0.53417C12.2349 0.244354 11.4981 0.0953837 10.7542 0.0957649H5.66825C4.92426 0.0953837 4.18748 0.244354 3.49998 0.53417C2.81248 0.823986 2.18772 1.24897 1.66137 1.78486C1.13503 2.32075 0.717401 2.95706 0.432343 3.65744C0.147284 4.35782 0.000373865 5.10857 0 5.86681L0 34.1097H23.9203L16.4252 28.4692L16.4224 5.86681ZM6.0655 28.0832V7.03785C6.06625 6.75728 6.17604 6.48843 6.37084 6.29017C6.56565 6.09191 6.82959 5.98038 7.10489 5.98H9.31182C9.44825 5.97981 9.58337 6.00703 9.70947 6.06011C9.83556 6.11318 9.95016 6.19107 10.0467 6.28932C10.1432 6.38757 10.2198 6.50426 10.2721 6.6327C10.3243 6.76114 10.3512 6.89881 10.3512 7.03785V28.0789L6.0655 28.0832Z" fill="#030C59"/>
<path d="M21.7518 27.7379L27.4799 32.3785L32.2426 26.2621L26.5216 21.6273L21.7518 27.7379Z" fill="#030C59"/>
</g>
<defs>
<clipPath id="clip0_772_97">
<rect width="54" height="54" fill="white"/>
</clipPath>
</defs>
</svg>
