<svg width="50" height="50" viewBox="0 0 50 50" fill="none" xmlns="http://www.w3.org/2000/svg">
<path d="M50 0H0V50H50V0Z" fill="#1B1B1B"/>
<path d="M24.4053 17.5237H39.9773C41.0322 17.524 42.044 17.0816 42.7903 16.2937C43.5366 15.5058 43.9562 14.4369 43.957 13.3221V9.54415C43.9562 8.42933 43.5366 7.36048 42.7903 6.57259C42.044 5.78469 41.0322 5.34225 39.9773 5.34253H20.5195V23.0914L24.4053 17.5237ZM24.6722 13.0231V9.84313H39.1676C39.3609 9.84369 39.5463 9.92512 39.683 10.0696C39.8197 10.2141 39.8968 10.41 39.8973 10.6144V12.2551C39.8968 12.4594 39.8197 12.6553 39.683 12.7998C39.5463 12.9443 39.3609 13.0257 39.1676 13.0263L24.6722 13.0231Z" fill="#B1B1B4"/>
<path d="M32.4267 40.386C32.4267 40.9382 32.5297 41.4851 32.7298 41.9953C32.9299 42.5054 33.2231 42.9689 33.5928 43.3592C33.9625 43.7495 34.4014 44.059 34.8843 44.27C35.3673 44.4809 35.8848 44.5892 36.4074 44.5887H39.9773C41.0323 44.5889 42.0443 44.1464 42.7906 43.3582C43.5369 42.5701 43.9565 41.501 43.957 40.386V19.8237H27.1624L32.4247 23.9303L32.4267 40.386ZM39.6943 24.2113V39.5302C39.6945 39.6316 39.6757 39.7319 39.6391 39.8255C39.6024 39.9192 39.5487 40.0042 39.4809 40.0759C39.4131 40.1475 39.3326 40.2043 39.244 40.243C39.1554 40.2818 39.0604 40.3016 38.9646 40.3015H37.4151C37.2217 40.3009 37.0364 40.2195 36.8996 40.075C36.7629 39.9305 36.6858 39.7346 36.6853 39.5302V24.2113H39.6943Z" fill="#B1B1B4"/>
<path d="M29.4755 26.9106L25.5917 32.4772H10.0227C9.5003 32.4768 8.98294 32.5852 8.50018 32.7961C8.01742 33.0071 7.57872 33.3165 7.20914 33.7067C6.83956 34.0969 6.54635 34.5602 6.34625 35.0702C6.14616 35.5801 6.0431 36.1268 6.04297 36.6789V40.4558C6.0431 41.0078 6.14616 41.5545 6.34625 42.0645C6.54635 42.5744 6.83956 43.0378 7.20914 43.4279C7.57872 43.8181 8.01742 44.1275 8.50018 44.3385C8.98294 44.5494 9.5003 44.6578 10.0227 44.6574H29.4755V26.9106ZM10.8254 40.1568C10.6326 40.1559 10.448 40.0743 10.3121 39.9296C10.1762 39.785 10.1001 39.5894 10.1007 39.3856V37.748C10.1004 37.5444 10.1765 37.349 10.3124 37.2046C10.4483 37.0602 10.6328 36.9787 10.8254 36.9778H25.3208V40.1568H10.8254Z" fill="#B1B1B4"/>
<path d="M17.5723 9.61397C17.572 8.49954 17.1529 7.43084 16.4072 6.64292C15.6614 5.85499 14.6501 5.41235 13.5956 5.41235H10.0227C9.5003 5.41194 8.98294 5.5203 8.50018 5.73125C8.01742 5.9422 7.57872 6.25161 7.20914 6.6418C6.83956 7.03198 6.54635 7.49529 6.34625 8.00527C6.14616 8.51525 6.0431 9.06189 6.04297 9.61397V30.1762H22.8376L17.5743 26.0697L17.5723 9.61397ZM10.3016 25.7887V10.4697C10.3019 10.2654 10.3787 10.0696 10.5153 9.92506C10.6519 9.78052 10.8371 9.69905 11.0304 9.69849H12.5799C12.6757 9.69835 12.7707 9.71821 12.8593 9.75691C12.9479 9.79562 13.0284 9.85243 13.0962 9.92407C13.164 9.99571 13.2177 10.0808 13.2544 10.1744C13.291 10.2681 13.3098 10.3684 13.3096 10.4697V25.7887H10.3016Z" fill="#B1B1B4"/>
<path d="M21.3152 25.5372L25.3359 28.9158L28.6808 24.4628L24.6641 21.0884L21.3152 25.5372Z" fill="#B1B1B4"/>
</svg>
