<svg width="26" height="26" viewBox="0 0 26 26" fill="none" xmlns="http://www.w3.org/2000/svg">
<g id="mic-line">
<path id="Vector" d="M12.9998 3.25C11.2048 3.25 9.74974 4.70508 9.74974 6.5V10.8333C9.74974 12.6283 11.2048 14.0833 12.9998 14.0833C14.7946 14.0833 16.2498 12.6283 16.2498 10.8333V6.5C16.2498 4.70508 14.7946 3.25 12.9998 3.25ZM12.9998 1.08333C15.9913 1.08333 18.4164 3.50846 18.4164 6.5V10.8333C18.4164 13.8248 15.9913 16.25 12.9998 16.25C10.0082 16.25 7.58307 13.8248 7.58307 10.8333V6.5C7.58307 3.50846 10.0082 1.08333 12.9998 1.08333ZM3.30925 11.9167H5.4932C6.01887 15.5917 9.1794 18.4167 12.9998 18.4167C16.82 18.4167 19.9806 15.5917 20.5063 11.9167H22.6902C22.1907 16.4359 18.6023 20.0242 14.0831 20.5239V24.9167H11.9164V20.5239C7.39715 20.0242 3.80883 16.4359 3.30925 11.9167Z" fill="white"/>
</g>
</svg>
