<svg width="114" height="79" viewBox="0 0 114 79" fill="none" xmlns="http://www.w3.org/2000/svg">
<g id="Nuance" style="mix-blend-mode:luminosity">
<path id="Vector" fill-rule="evenodd" clip-rule="evenodd" d="M73.1336 36.2163C68.1988 35.9566 63.7817 34.3977 59.626 32.0605C55.2097 29.7225 53.1322 28.1636 52.8717 27.9047V28.9435C52.612 29.2032 53.9113 30.7621 56.2492 33.6194C58.5872 36.4768 62.2236 39.3349 66.9004 42.1914C71.5755 45.0496 77.2902 46.6077 84.3041 46.8674H90.7978C92.3568 46.6077 93.1366 45.8286 93.3963 44.5294V27.3846C93.1366 25.8256 92.3568 25.0466 90.7978 24.7869H73.1344V36.2163H73.1336ZM103.007 60.1146H110.021V56.7386H99.3699V72.5835H110.539V69.4672H103.007V66.0905H109.76V62.9735H103.007V60.1146ZM95.2133 58.8161C93.6544 56.9975 91.8358 56.2177 89.7583 56.4782C84.5622 56.7378 81.704 59.3347 81.4452 64.7905C81.7033 69.9858 84.5614 72.5827 89.7583 72.8432C92.0955 73.1029 94.1738 72.0633 95.473 70.2447L92.6148 67.9067C91.835 69.206 90.7962 69.7253 89.497 69.7253C86.6405 69.4657 85.3412 67.9067 85.0816 64.7897C85.3412 61.413 86.6405 59.8549 89.497 59.5952C90.7962 59.5952 91.5753 60.1138 92.3552 60.8936L95.2133 58.8161ZM73.653 65.5696L62.4841 55.9588V72.5827H65.86V63.7518L77.2894 73.3617V56.7378H73.6538V65.5696H73.653ZM63.5212 24.2675V23.4877L59.6252 18.8117C57.2872 15.9544 53.9105 12.8374 49.2345 9.98002C44.2981 7.12268 38.5834 5.56376 31.83 5.30408H25.3363C23.7773 5.56376 22.9983 6.34362 22.7386 7.64285V24.7869C22.9983 26.3458 23.7773 27.1249 25.3363 27.3846H43.0005V15.9544C47.9361 16.2141 52.3524 17.773 56.5081 20.111L63.5212 24.2675ZM26.6355 56.7386V66.6099C26.6355 70.5068 28.713 72.5835 33.1292 72.844C37.5447 72.5835 39.8834 70.506 39.8834 66.6099V56.7386H36.247V66.3486C36.247 68.4269 35.2083 69.4664 33.13 69.7261C31.3114 69.4664 30.2719 68.4269 30.013 66.3486V56.7386H26.6355ZM3.77594 53.8805V72.5835H7.41234V61.6743L21.1805 73.3633V54.6604H17.5441V65.3107L3.77594 53.8805ZM49.2353 56.7386L42.2214 72.5835H46.1183L47.157 69.9866H53.9113L54.95 72.5835H58.8469L52.0927 56.7386H49.2353ZM48.195 66.8688L50.533 61.413L52.6112 66.8688H48.195Z" fill="#4E6994"/>
</g>
</svg>
