<svg width="159" height="56" viewBox="0 0 159 56" fill="none" xmlns="http://www.w3.org/2000/svg">
<g id="Percy" style="mix-blend-mode:luminosity">
<path id="Vector" d="M32.9555 6.97009C37.2439 8.87897 41.0445 11.8181 41.1948 11.9349L41.1994 11.9385C40.5939 9.54389 40.1554 8.26213 40.1554 8.26213C41.5026 8.99501 43.112 9.9386 44.6953 10.9236L45.0466 11.1431C47.5596 12.7202 49.9523 14.3706 51.0602 15.4107C52.1365 15.3604 52.9976 15.09 53.5498 14.8588C54.4909 14.4649 55.2819 15.4327 55.5813 16.4173C55.8791 17.3967 56.2374 18.9084 56.2538 20.5479C56.2723 22.3759 55.8665 23.9552 55.048 25.2425C53.4978 27.6804 50.4877 29.3315 47.2386 31.0255L46.8767 31.2139L46.6951 31.3083C43.0913 33.1822 40.0851 35.0837 37.7352 38.5814C36.5216 40.3879 35.5728 42.4022 34.9446 44.493C34.2744 46.7193 33.7449 48.524 32.2387 48.524C30.8756 48.524 30.0624 46.768 29.4477 45.7763C28.2653 43.8692 26.7947 41.4972 24.4138 41.2966C22.2992 40.9833 20.5635 41.7661 19.3092 42.8002C18.6893 43.3114 18.1758 43.8928 17.7822 44.4498C17.4296 44.8716 17.0975 45.3042 16.7746 45.7249C15.788 47.0112 14.9357 48.1223 13.8097 48.4444C13.6257 48.4973 13.4446 48.524 13.2712 48.524C13.1478 48.524 13.0083 48.5097 12.8615 48.471L12.7875 48.4495L12.7845 48.4541C9.23601 47.4145 9.0529 40.9253 9.0529 40.9253C7.34682 41.3316 5.5851 42.4536 5.5851 42.4536C7.17378 37.0112 10.2189 33.4545 10.2189 33.4545C9.55477 33.4024 8.80668 33.4157 8.07172 33.4623L7.86218 33.4765C6.01582 33.6094 4.31205 33.9346 4.31205 33.9346C9.0529 27.8337 12.2521 25.5978 12.2521 25.5978C9.74039 24.5006 6.53214 23.9396 6.53214 23.9396C12.307 20.605 18.0376 18.9732 18.0376 18.9732C16.7894 17.7949 12.2966 16.2105 12.2966 16.2105C13.1738 15.9581 14.1995 15.7266 15.266 15.519L15.5578 15.4629C15.7529 15.426 15.949 15.3898 16.1454 15.3545L16.4404 15.3021C16.6005 15.274 16.7606 15.2464 16.9204 15.2194L17.1599 15.1794C17.1997 15.1727 17.2396 15.1662 17.2793 15.1596L17.5176 15.1208C20.5684 14.6283 23.3403 14.3468 23.3403 14.3468C21.8472 13.0882 18.4682 11.7179 18.4682 11.7179C20.3708 11.653 22.0723 11.6296 23.5065 11.6279L23.9028 11.6279C26.713 11.6322 28.3951 11.7179 28.3951 11.7179C27.3455 10.2756 24.6402 8.38805 24.6402 8.38805C30.2733 8.91793 34.2886 10.3158 34.2886 10.3158C34.2459 9.97359 34.0058 9.3325 33.7409 8.70236L33.6713 8.53842C33.3217 7.72203 32.9555 6.97009 32.9555 6.97009ZM23.8909 42.4468C23.7235 42.8942 23.5356 43.3783 23.3354 43.8627C23.3074 43.9305 23.2792 43.9984 23.2508 44.0663L23.1649 44.27C22.4303 45.9991 21.5705 47.6677 20.6483 47.8133C20.5893 47.8226 20.5292 47.8273 20.4699 47.8273C19.7379 47.8273 19.0816 47.1519 18.4682 45.7647C19.5472 44.2435 21.688 42.4719 23.8909 42.4468ZM40.9969 37.0112C40.393 39.2752 40.3124 41.5492 40.2481 43.3759L40.248 43.3777C40.2063 44.5588 40.1704 45.5786 40.0017 46.321C39.7759 47.3153 39.2812 47.8195 38.5308 47.8195L38.5053 47.8193C37.7813 47.8076 37.0121 47.1874 36.169 45.9303C36.6658 43.0844 38.632 39.4491 40.9969 37.0112ZM74.5958 14.7856C77.0062 14.7856 79.3629 15.8468 80.943 17.562C82.5208 19.2749 83.497 21.6409 83.497 24.2521C83.497 26.8635 82.5208 29.229 80.943 30.9419C79.3629 32.6566 77.0062 33.7182 74.5958 33.7182C72.8304 33.7182 70.978 33.1715 69.6873 31.9529L69.691 37.7598C69.6943 42.6421 65.8834 41.902 65.0007 41.8523C64.7006 41.8354 64.4658 41.7711 64.3028 41.6106C64.1398 41.4501 64.0578 41.2197 64.0578 40.9234L64.0458 15.7565C64.0458 15.4537 64.1296 15.2152 64.2977 15.0501C64.4654 14.8846 64.7062 14.802 65.015 14.802H68.3295C68.6384 14.802 68.8792 14.8846 69.0468 15.0501C69.215 15.2152 69.2951 15.4514 69.2988 15.7565L69.3113 16.7183C70.0546 16.105 70.8798 15.6284 71.7522 15.3019C72.6609 14.9626 73.6219 14.7856 74.5958 14.7856ZM140.031 14.7614C140.283 14.7614 140.497 14.8294 140.661 14.9562C140.825 15.0834 140.945 15.2777 141.047 15.5171L145.781 26.5908L149.177 15.5481C149.25 15.2836 149.378 15.1024 149.552 14.9692C149.722 14.8388 149.939 14.7614 150.193 14.7614H154.111C154.444 14.7614 154.68 14.8581 154.819 15.0341C154.957 15.217 154.976 15.4724 154.873 15.8126L149.604 32.3497L147.571 38.7662L146.794 41.2329C146.708 41.5071 146.567 41.6995 146.373 41.8076L146.317 41.8354C146.106 41.9212 145.882 41.9088 145.618 41.8441C144.764 41.6334 140.804 41.1883 142.388 36.5635L143.327 33.8199L143.115 33.2869L142.085 30.8397L135.636 15.8573C135.495 15.5463 135.545 15.2631 135.672 15.0702C135.804 14.8691 136.036 14.7674 136.362 14.7614H140.031ZM16.5199 30.1888L12.1034 36.837L16.2651 33.0318L16.5199 30.1888ZM115.314 14.7879C115.509 14.7902 115.667 14.8636 115.782 14.9822C115.953 15.1559 116.034 15.3908 116.034 15.6945V20.0781C116.034 20.3754 115.972 20.5983 115.84 20.747C115.713 20.8952 115.525 20.97 115.28 20.97C114.746 20.9513 114.236 21.007 113.739 21.137C113.249 21.2665 112.802 21.49 112.412 21.7932C112.023 22.1029 111.71 22.5187 111.482 23.0254C111.251 23.5398 111.134 24.1646 111.13 24.908L111.105 29.5829C111.078 34.4653 107.297 33.7256 106.414 33.6754C106.113 33.6585 105.879 33.5951 105.716 33.4342C105.553 33.2732 105.471 33.0438 105.471 32.7469V15.731C105.471 15.4341 105.553 15.2047 105.716 15.0437C105.88 14.8828 106.113 14.8025 106.414 14.8025H110.186C110.488 14.8025 110.721 14.8828 110.884 15.0437C111.048 15.2047 111.13 15.4337 111.13 15.731V16.6654C111.583 15.8747 112.617 14.7519 115.314 14.7879ZM126.562 14.7614C130.823 14.7614 134.391 17.3436 135.521 21.0736C135.74 21.6833 135.375 22.0783 134.756 22.0783H130.75C130.276 22.0783 129.948 21.863 129.657 21.4685C129.002 20.5719 127.873 20.0693 126.562 20.0693C124.194 20.0693 122.373 21.7554 122.373 24.2298C122.373 26.7048 124.194 28.3903 126.562 28.3903C127.873 28.3903 129.002 27.8882 129.657 27.0276C129.948 26.5971 130.239 26.3819 130.75 26.3819H134.756C135.375 26.3819 135.74 26.7763 135.521 27.3861C134.391 31.1161 130.823 33.6987 126.562 33.6987C121.026 33.6987 116.91 29.5737 116.91 24.2298C116.91 18.8859 121.026 14.7614 126.562 14.7614ZM94.7853 14.7701C96.1166 14.776 97.3387 15.0141 98.4525 15.4852C99.5654 15.9558 100.528 16.6171 101.351 17.4635C102.168 18.3159 102.803 19.3105 103.251 20.4547C103.699 21.5989 103.929 22.8503 103.935 24.2088C103.935 24.4414 103.929 24.6677 103.91 24.8824C103.898 25.1027 103.88 25.3175 103.862 25.5318C103.826 25.8178 103.717 26.0262 103.548 26.1575C103.378 26.2889 103.154 26.354 102.882 26.354H90.7553C90.985 27.0573 91.306 27.6292 91.7292 28.0702C92.1529 28.5053 92.6494 28.8213 93.2056 29.0238C93.7687 29.2263 94.3675 29.3215 95.0033 29.3215C95.5173 29.3156 96.0134 29.2381 96.4857 29.0776C96.9517 28.9166 97.3568 28.7018 97.6898 28.4277C97.8653 28.285 98.0408 28.1714 98.2103 28.088C98.3859 28.005 98.5855 27.963 98.8152 27.963L102.301 27.9275C102.634 27.9334 102.876 28.0287 103.021 28.2134C103.16 28.3981 103.166 28.6366 103.027 28.9284C102.549 29.9655 101.913 30.8352 101.121 31.5325C100.328 32.2357 99.4083 32.7597 98.3613 33.1177C97.3146 33.4688 96.1713 33.648 94.9306 33.648C93.4177 33.6417 92.0561 33.3976 90.8461 32.9207C89.63 32.4441 88.5949 31.7829 87.7358 30.9246C86.8703 30.0727 86.2108 29.0712 85.751 27.9334C85.2911 26.7891 85.0609 25.5497 85.0549 24.2088C85.0609 22.8681 85.2972 21.6285 85.769 20.4848C86.2409 19.3465 86.9064 18.3455 87.772 17.4932C88.6315 16.6353 89.66 15.9736 90.8461 15.497C92.0321 15.0205 93.345 14.776 94.7853 14.7701ZM29.1702 25.0955L19.1655 29.8736L27.504 27.8337L29.1702 25.0955ZM20.2202 23.9397L12.2966 29.623L18.7522 26.7813L20.2202 23.9397ZM74.5263 20.0319C72.2024 20.0319 70.319 21.899 70.319 24.202C70.319 26.5055 72.2024 28.3725 74.5263 28.3725C76.8497 28.3725 78.7331 26.5055 78.7331 24.202C78.7331 21.899 76.8497 20.0319 74.5263 20.0319ZM38.1447 22.2732L29.2573 23.2303L35.7543 23.6108L38.1447 22.2732ZM94.7491 19.5253C93.726 19.5312 92.867 19.7638 92.1895 20.2344C91.5055 20.6992 91.0216 21.3846 90.7372 22.2784H98.5127C98.3192 21.6049 98.0287 21.0626 97.6411 20.6576C97.2605 20.2582 96.8127 19.9663 96.3102 19.7875C95.8078 19.6087 95.2876 19.5194 94.7491 19.5253ZM28.3951 19.665L19.5077 20.6219L26.0386 21.2441L28.3951 19.665ZM40.9134 18.551L34.2886 19.9557L39.4433 19.665L40.9134 18.551ZM25.8601 16.2105L32.7499 17.9734L35.7542 16.9759L25.8601 16.2105ZM32.9555 12.8136L38.5308 15.4107L41.1994 14.8588L32.9555 12.8136Z" fill="#5C007B"/>
</g>
</svg>
