<svg width="26" height="26" viewBox="0 0 26 26" fill="none" xmlns="http://www.w3.org/2000/svg">
<g id="search-line">
<path id="Vector" d="M19.5336 18.0015L24.1732 22.6411L22.6411 24.1732L18.0016 19.5336C16.3333 20.8683 14.2177 21.6667 11.9167 21.6667C6.53469 21.6667 2.16669 17.2987 2.16669 11.9167C2.16669 6.53467 6.53469 2.16667 11.9167 2.16667C17.2987 2.16667 21.6667 6.53467 21.6667 11.9167C21.6667 14.2177 20.8683 16.3333 19.5336 18.0015ZM17.3601 17.1977C18.6848 15.8325 19.5 13.9702 19.5 11.9167C19.5 7.72688 16.1065 4.33333 11.9167 4.33333C7.7269 4.33333 4.33335 7.72688 4.33335 11.9167C4.33335 16.1065 7.7269 19.5 11.9167 19.5C13.9703 19.5 15.8325 18.6848 17.1977 17.3601L17.3601 17.1977Z" fill="#AAA4A6"/>
</g>
</svg>
