<svg width="29" height="29" viewBox="0 0 29 29" fill="none" xmlns="http://www.w3.org/2000/svg">
<g id="shake-hands-line">
<path id="Vector" d="M14.3512 3.12812C15.5225 2.34725 17.0442 2.33107 18.2319 3.08683L23.1559 6.2203H25.1809C25.8354 6.2203 26.3659 6.75087 26.3659 7.40533V18.0706C26.3659 18.7251 25.8354 19.2556 25.1809 19.2556H23.38C23.4505 20.3782 22.9216 21.5194 21.8577 22.1577L15.8219 25.7793C15.0599 26.2364 14.114 26.2257 13.368 25.7703C12.5381 26.5042 11.2607 26.585 10.3339 25.8568L4.24195 21.0702C3.33373 20.3567 3.10406 19.1376 3.57301 18.1711C3.00028 17.7219 2.66553 17.0343 2.66553 16.3061V7.40541C2.66553 6.75094 3.19609 6.22037 3.85056 6.22037H9.71283L14.3512 3.12812ZM5.24017 16.4652L6.06025 15.7477C7.51809 14.472 9.72881 14.5983 11.0319 16.0317L14.234 19.5541C15.2644 20.6876 15.4524 22.3528 14.703 23.6866L20.6383 20.1254C20.9718 19.9254 21.0924 19.5254 20.9681 19.1885L15.7218 11.844C15.4271 11.4314 14.9026 11.252 14.417 11.3977L11.4719 12.2812C10.2192 12.657 8.86132 12.3146 7.93654 11.3899L7.58959 11.043C6.91648 10.3698 6.74241 9.41188 7.02567 8.59044H5.03559V16.3061L5.24017 16.4652ZM16.9595 5.08637C16.5636 4.83444 16.0564 4.83984 15.6659 5.10013L9.26548 9.36707L9.61242 9.71401C9.92068 10.0223 10.3733 10.1364 10.7909 10.0111L13.736 9.12758C15.1929 8.69051 16.7665 9.22868 17.6505 10.4664L22.2356 16.8855H23.9959V8.59037H23.1559C22.7051 8.59037 22.2637 8.46184 21.8834 8.21984L16.9595 5.08637ZM7.62095 17.5313L5.70624 19.2067L11.7982 23.9932L12.6324 22.5334C12.8871 22.0876 12.8258 21.5284 12.4803 21.1483L9.27816 17.6259C8.84381 17.1481 8.1069 17.1061 7.62095 17.5313Z" fill="#030C59"/>
</g>
</svg>
