<svg width="121" height="62" viewBox="0 0 121 62" fill="none" xmlns="http://www.w3.org/2000/svg">
<g id="Group">
<g id="Union">
<path d="M70.8694 58.0704C70.4733 58.1691 70.1245 58.2442 69.8337 58.2926C69.5275 58.3435 69.1953 58.3949 68.8376 58.4458C68.5084 58.4925 68.1826 58.5167 67.8693 58.5167C67.079 58.5167 66.4973 58.2548 66.09 57.7157C65.6401 57.1222 65.4214 56.5328 65.4214 55.9133V21.428H63.0657V55.9133C63.0657 57.2073 63.4742 58.3523 64.2805 59.3147C65.1158 60.3143 66.3058 60.8204 67.8173 60.8204C68.2914 60.8204 68.762 60.7926 69.2166 60.7382C69.6552 60.6856 70.0495 60.633 70.4024 60.5804C70.763 60.526 71.1803 60.4444 71.6438 60.338L72.4424 60.1536L71.3937 57.9391L70.8694 58.0704Z" fill="#201F26"/>
<path d="M19.5006 40.7585C21.2031 41.0458 22.7697 41.5654 24.1559 42.3031C25.577 43.0598 26.738 44.1097 27.6075 45.422C28.4883 46.7532 28.9347 48.4356 28.9347 50.4224C28.9347 52.3832 28.4582 54.0526 27.5189 55.3868C26.6044 56.6856 25.4191 57.7608 23.9945 58.5825C22.5923 59.3918 21.0447 59.9741 19.3954 60.3152C17.7686 60.6503 16.1903 60.8206 14.703 60.8206C11.5752 60.8206 8.80102 60.2312 6.45833 59.0685C4.14402 57.9205 2.15956 56.5283 0.561711 54.9293L0.0604248 54.428L1.84626 52.8804L2.28075 53.3326C3.89929 55.0174 5.81694 56.3066 7.97933 57.1644C10.1512 58.0275 12.4135 58.4649 14.703 58.4649C16.0667 58.4649 17.4855 58.313 18.919 58.0127C20.33 57.7177 21.624 57.2365 22.7673 56.5833C23.8863 55.9437 24.8168 55.1025 25.5332 54.0834C26.2266 53.0968 26.579 51.866 26.579 50.4224C26.579 48.8151 26.213 47.5099 25.4924 46.5434C24.7476 45.5449 23.7811 44.7487 22.6213 44.1759C21.4307 43.5894 20.1042 43.1922 18.679 42.9954C17.2141 42.7926 15.7895 42.6909 14.444 42.6909C12.7516 42.6909 11.0875 42.5295 9.49738 42.2115C7.86997 41.8858 6.41045 41.3248 5.1596 40.5445C3.88214 39.7488 2.84056 38.67 2.0638 37.3387C1.28231 35.9992 0.885656 34.3186 0.885656 32.3442C0.885656 30.4632 1.31364 28.8446 2.15602 27.5329C2.98538 26.2436 4.07781 25.1884 5.40315 24.3963C6.7007 23.6213 8.15313 23.055 9.71906 22.7122C11.2619 22.3752 12.7995 22.205 14.2886 22.205C15.8409 22.205 17.2336 22.322 18.4283 22.5537C19.6354 22.7884 20.7332 23.1366 21.6926 23.5888C22.6644 24.0475 23.5304 24.6263 24.2676 25.3067C24.99 25.9758 25.6651 26.7508 26.2745 27.6115L26.7498 28.2825L24.5106 29.2247L24.2067 28.7784C23.664 27.9816 23.0185 27.303 22.2879 26.7621C21.5466 26.2153 20.7296 25.7737 19.8607 25.4515C18.9757 25.1246 18.0547 24.8923 17.1237 24.7611C14.7378 24.4282 12.3957 24.5163 10.1784 24.9869C8.87609 25.2635 7.69854 25.7157 6.67824 26.3311C5.68335 26.9311 4.85812 27.7398 4.22678 28.7353C3.60372 29.7148 3.27268 30.9337 3.24194 32.3584C3.24194 33.9716 3.5647 35.3088 4.20195 36.3172C4.84807 37.3423 5.6934 38.1563 6.71548 38.738C7.76593 39.3362 8.97363 39.7547 10.3072 39.9817C11.6769 40.2158 13.0685 40.3346 14.444 40.3346C16.127 40.3346 17.8283 40.4771 19.5006 40.7585Z" fill="#201F26"/>
<path fill-rule="evenodd" clip-rule="evenodd" d="M50.7832 33.2628C52.4213 34.1271 53.8453 35.2597 55.017 36.6288C56.1862 37.9973 57.0978 39.5738 57.7262 41.3147C58.3534 43.0556 58.672 44.8131 58.672 46.5375C58.672 48.4415 58.325 50.2835 57.641 52.012C56.9589 53.7364 56.0018 55.2851 54.7976 56.6152C53.5888 57.95 52.1535 59.0294 50.5314 59.8215C48.8975 60.6196 47.114 61.0434 45.2306 61.0795H45.2058C43.2154 61.0434 41.3675 60.6013 39.7141 59.7654C38.0731 58.9366 36.6461 57.8294 35.4727 56.4751C34.3046 55.1267 33.3848 53.5791 32.7387 51.8737C32.0914 50.1671 31.7633 48.3718 31.7633 46.5375C31.7633 44.5967 32.1192 42.7193 32.8203 40.9583C33.5202 39.1996 34.4855 37.6337 35.6896 36.3042C36.8985 34.9694 38.3356 33.8983 39.9606 33.1215C41.5975 32.34 43.3662 31.9434 45.2176 31.9434C47.25 31.9434 49.1227 32.3867 50.7832 33.2628ZM40.8278 57.7331C42.126 58.3904 43.6026 58.7238 45.2176 58.7238C46.864 58.7238 48.3814 58.3662 49.7286 57.6598C51.0965 56.9433 52.2847 55.9945 53.2607 54.84C54.2408 53.6802 55.0028 52.3549 55.5271 50.8983C56.0503 49.4394 56.3163 47.9716 56.3163 46.5375C56.3163 44.9715 56.0266 43.431 55.455 41.9591C54.881 40.4854 54.0853 39.1665 53.0893 38.0386C52.0955 36.9155 50.9068 35.9992 49.5554 35.3153C48.2224 34.6414 46.7629 34.2991 45.2176 34.2991C43.5743 34.2991 42.0586 34.665 40.712 35.3862C39.3423 36.1204 38.1523 37.0786 37.1746 38.2355C36.1939 39.3965 35.4319 40.7224 34.9087 42.176C34.385 43.6344 34.119 45.1016 34.119 46.5375C34.1834 48.0904 34.5009 49.6415 35.0607 51.1212C35.6163 52.5943 36.3955 53.9125 37.3762 55.0398C38.3515 56.1624 39.5125 57.068 40.8278 57.7331Z" fill="#201F26"/>
<path d="M77.7997 37.5809C78.726 36.2715 79.8084 35.1779 81.0338 34.3166C82.8829 33.0167 85.0932 32.3576 87.6038 32.3576H88.2635V34.6813L87.6369 34.7127C86.334 34.7783 85.1346 35.0325 84.0717 35.4676C83.0059 35.9032 82.0494 36.4914 81.2277 37.2161C80.4061 37.9415 79.702 38.8093 79.1363 39.7947C78.5753 40.773 78.126 41.8519 77.7997 43.0022V60.5614H75.444V32.3576H77.7997V37.5809Z" fill="#201F26"/>
</g>
<path id="Vector" d="M114.689 6.67015L95.1819 27.7602L119.698 16.4494C118.973 12.7075 117.197 9.34269 114.689 6.67015ZM100.216 0.396851C97.5129 0.396851 94.9379 0.938926 92.5899 1.91726L89.9723 23.9751L103.052 0.601976C102.126 0.46897 101.179 0.396851 100.216 0.396851ZM119.893 17.6645L96.6619 30.6649L118.457 28.0786C119.491 25.6756 120.065 23.0285 120.065 20.2466C120.065 19.3706 120.003 18.5104 119.893 17.6645ZM111.328 36.6963C113.923 34.9394 116.079 32.5831 117.601 29.8278L97.1717 33.8848L111.328 36.6963ZM104.249 0.807693L92.8768 25.4553L113.972 5.94411C111.326 3.39925 107.98 1.57795 104.249 0.807693ZM101.875 40.0219C104.073 39.8398 106.169 39.3025 108.105 38.4625L96.662 37.1046L101.875 40.0219ZM82.1219 12.0865C81.2292 14.0626 80.6505 16.2091 80.4495 18.466L83.5323 23.9755L82.1219 12.0865ZM90.8698 2.73333C88.069 4.23128 85.6713 6.38066 83.8754 8.97991L86.7525 23.4652L90.8698 2.73333Z" fill="#C7402B"/>
</g>
</svg>
